Genre:Drama | Horror | Mystery 
Language:English
IMDb:http://www.imdb.com/title/tt1181791/
Source:DVD.Thanks
...........................................
General
Complete name : Black.Death.2010.DVDRip.H264.FEEL-FREE
Format : MPEG-4
Format profile : Base Media
Codec ID : isom
File size : 1.24 GiB
Duration : 1h 37mn
Overall bit rate : 1 810 Kbps
............................................
Video
ID : 1
Format : AVC
Format/Info : Advanced Video Codec
Format profile : Baseline@L5.1
Format settings, CABAC : No
Format settings, ReFrames : 1 frame
Codec ID : avc1
Codec ID/Info : Advanced Video Coding
Duration : 1h 37mn
Bit rate mode : Variable
Bit rate : 1 492 Kbps
Width : 688 pixels
Height : 288 pixels
Display aspect ratio : 2.35:1
Frame rate mode : Constant
Frame rate : 25.000 fps
Resolution : 24 bits
Colorimetry : 4:2:0
Scan type : Progressive
Bits/(Pixel*Frame) : 0.301
Stream size : 1.02 GiB (82%)
...............................................
Audio
ID : 2
Format : AAC
Format/Info : Advanced Audio Codec
Format version : Version 4
Format profile : LC
Format settings, SBR : No
Codec ID : 40
Duration : 1h 37mn
Bit rate mode : Variable
Bit rate : 314 Kbps
Channel(s) : 6 channels
Channel positions : Front: L C R, Rear: L R, LFE
Sampling rate : 48.0 KHz
Resolution : 16 bits
Stream size : 219 MiB (17%)
.................................................
Plot:
Set during the time of the first outbreak of bubonic plague in England, a young monk is tasked with learning the truth about reports of people being brought back to life in a small village
...................................................
Screenshots:
 
http://www.starshare.ro/bitbucket/Black.Death.2010.DVDRip.H264.FEEL-FREE.mp4_thumbs_%5B2010.08.04_15.02.37%5D.jpg
 
http://www.starshare.ro/bitbucket/Black.Death.2010.DVDRip.H264.FEEL-FREE.mp4_snapshot_00.28.18_%5B2010.08.04_15.03.06%5D.jpg
 
http://www.starshare.ro/bitbucket/Black.Death.2010.DVDRip.H264.FEEL-FREE.mp4_snapshot_00.38.34_%5B2010.08.04_15.02.48%5D.jpg
 
http://www.starshare.ro/bitbucket/Black.Death.2010.DVDRip.H264.FEEL-FREE.mp4_snapshot_01.06.44_%5B2010.08.04_15.02.54%5D.jpg
 
http://www.starshare.ro/bitbucket/Black.Death.2010.DVDRip.H264.FEEL-FREE.mp4_snapshot_00.18.29_%5B2010.08.04_15.03.22%5D.jpg